<svg width="22" height="28" viewBox="0 0 22 28" fill="none" xmlns="http://www.w3.org/2000/svg">
<g clip-path="url(#clip0_90_7531)">
<path d="M19.3472 23.5827L14.1792 18.3977C14.6779 17.8084 15.0576 17.1567 15.3182 16.4427C15.5902 15.7061 15.7262 14.9411 15.7262 14.1477C15.7262 12.9464 15.4259 11.8301 14.8252 10.7987C14.2359 9.79006 13.4369 8.99107 12.4282 8.40173C11.3969 7.80107 10.2806 7.50073 9.07922 7.50073C7.87789 7.50073 6.76155 7.80107 5.73022 8.40173C4.73289 8.99107 3.93955 9.79006 3.35022 10.7987C2.74955 11.8301 2.44922 12.9464 2.44922 14.1477C2.44922 15.3491 2.74955 16.4654 3.35022 17.4967C3.93955 18.4941 4.73289 19.2874 5.73022 19.8767C6.76155 20.4774 7.87789 20.7777 9.07922 20.7777C9.89522 20.7777 10.6772 20.6361 11.4252 20.3527C12.1732 20.0694 12.8419 19.6671 13.4312 19.1457L18.5992 24.3477C18.7012 24.4497 18.8259 24.5007 18.9732 24.5007C19.1206 24.5007 19.2452 24.4469 19.3472 24.3392C19.4492 24.2316 19.5002 24.1069 19.5002 23.9652C19.5002 23.8236 19.4492 23.6961 19.3472 23.5827ZM9.07922 19.7237C8.07055 19.7237 7.13555 19.4687 6.27422 18.9587C5.42422 18.4714 4.75555 17.8027 4.26822 16.9527C3.75822 16.0914 3.50322 15.1564 3.50322 14.1477C3.50322 13.1391 3.75822 12.1984 4.26822 11.3257C4.75555 10.4871 5.42422 9.8184 6.27422 9.31973C7.13555 8.80973 8.07339 8.55473 9.08772 8.55473C10.1021 8.55473 11.0399 8.80973 11.9012 9.31973C12.7512 9.80707 13.4199 10.4757 13.9072 11.3257C14.4172 12.1871 14.6722 13.1277 14.6722 14.1477C14.6722 15.1677 14.4172 16.1084 13.9072 16.9697C13.4199 17.8084 12.7512 18.4714 11.9012 18.9587C11.0399 19.4687 10.0992 19.7237 9.07922 19.7237Z" fill="black"/>
</g>
<defs>
<clipPath id="clip0_90_7531">
<rect width="17" height="24" fill="white" transform="matrix(1 0 0 -1 2.5 28.0007)"/>
</clipPath>
</defs>
</svg>
