<?xml version="1.0" standalone="no"?>
<!DOCTYPE svg PUBLIC "-//W3C//DTD SVG 20010904//EN"
 "http://www.w3.org/TR/2001/REC-SVG-20010904/DTD/svg10.dtd">
<svg version="1.0" xmlns="http://www.w3.org/2000/svg"
 width="840.000000pt" height="840.000000pt" viewBox="0 0 840.000000 840.000000"
 preserveAspectRatio="xMidYMid meet">

<g transform="translate(0.000000,840.000000) scale(0.100000,-0.100000)"
fill="#000000" stroke="none">
<path d="M4222 6783 l-47 -98 3 -345 c1 -190 7 -968 12 -1730 6 -762 15 -1704
20 -2095 5 -390 10 -745 10 -787 l0 -78 1413 0 1414 0 7 413 c3 226 6 642 6
922 0 281 2 1226 6 2100 l7 1590 -32 103 -32 102 -1370 0 -1370 0 -47 -97z
m2571 -402 c6 -6 10 -94 11 -223 l1 -213 -25 -6 c-14 -4 -71 -14 -128 -23
-115 -18 -141 -28 -194 -80 -32 -31 -44 -36 -105 -42 -101 -10 -123 -25 -26
-18 80 6 82 6 76 -15 -8 -31 -41 -51 -84 -51 -21 0 -59 -4 -86 -10 -158 -31
-165 -32 -190 -8 -13 12 -23 25 -23 30 0 28 -150 143 -219 166 -53 19 -67 15
-35 -10 16 -13 34 -27 40 -33 6 -5 30 -27 53 -49 23 -21 40 -40 38 -42 -4 -5
-42 9 -67 25 -62 39 -141 63 -223 68 -58 4 -86 10 -84 17 2 6 12 13 23 15 10
2 23 9 27 17 4 8 19 14 33 14 14 0 22 4 19 10 -11 18 -131 11 -187 -10 -66
-25 -82 -25 -199 0 -83 17 -240 28 -227 15 2 -3 58 -12 124 -20 213 -28 212
-27 177 -56 -47 -37 -62 -40 -141 -30 -99 13 -222 19 -216 9 6 -9 -4 -14 -43
-23 -21 -4 -33 -3 -33 4 0 6 7 11 15 11 8 0 15 4 15 9 0 11 -38 2 -46 -11 -4
-6 -1 -14 6 -18 9 -6 7 -15 -11 -39 -25 -34 -27 -35 -47 -22 -15 9 -19 74 -8
110 5 13 4 21 -1 18 -7 -5 -185 -11 -221 -8 -9 1 -12 13 -10 37 l3 35 105 4
c58 2 120 -1 138 -7 32 -10 33 -10 17 -34 -16 -24 -16 -25 12 -18 50 11 54 14
51 36 -3 20 -12 25 -78 36 -47 8 -131 11 -227 9 l-153 -4 0 218 c0 218 0 218
23 222 46 10 2320 -2 2330 -12z m249 -470 c-1 -14 -4 -26 -5 -28 -7 -6 -124
-19 -136 -15 -11 4 -11 6 0 13 9 6 2 8 -21 8 -35 -1 -96 -16 -72 -18 22 -2 2
-21 -21 -20 -12 0 -16 3 -9 6 29 12 8 18 -45 13 -39 -3 -57 -9 -55 -18 1 -6
-5 -12 -14 -12 -9 0 -12 5 -8 11 5 9 -1 10 -21 5 -19 -5 -31 -3 -36 5 -6 10
-13 10 -36 -1 -32 -17 -98 -83 -107 -107 -5 -11 -10 -13 -17 -6 -12 12 1 41
36 81 29 34 50 43 124 53 36 5 77 12 91 15 41 8 110 15 195 20 44 3 84 10 90
15 5 6 23 9 40 7 25 -3 30 -7 27 -27z m-2740 3 c-12 -8 -27 -12 -34 -8 -8 5
-6 10 8 15 35 14 50 10 26 -7z m171 -4 c-6 -21 -14 -23 -50 -14 -36 10 -26 29
16 32 35 2 39 0 34 -18z m82 1 c7 -12 -2 -17 -45 -25 l-35 -7 25 20 c27 22 46
26 55 12z m-161 -30 c3 -5 -6 -12 -20 -15 -29 -8 -39 -3 -29 13 8 13 42 14 49
2z m-105 -35 c8 -10 9 -16 2 -21 -13 -7 -51 12 -51 25 0 15 36 12 49 -4z
m1122 1 c-6 -8 -29 -22 -51 -32 -22 -10 -40 -22 -40 -27 0 -10 23 -11 36 0 5
5 -17 -18 -48 -49 -31 -32 -66 -75 -76 -96 -27 -52 -52 -140 -52 -180 0 -50
17 -39 22 15 5 49 44 149 54 139 3 -3 1 -27 -4 -54 -29 -128 -31 -147 -17
-158 8 -5 17 -22 20 -36 9 -35 -15 -43 -76 -28 -44 12 -162 3 -246 -18 -18 -4
-23 -1 -23 15 0 25 18 38 32 24 7 -7 23 -6 50 4 22 8 55 14 72 15 26 0 28 2
11 9 -17 7 -14 9 15 10 19 1 46 6 60 11 19 7 14 7 -20 4 -25 -3 -106 -8 -180
-11 l-135 -7 -33 42 c-18 22 -38 41 -45 41 -7 0 -5 -5 4 -10 22 -13 34 -61 18
-71 -7 -4 -18 -5 -23 -2 -6 4 -19 8 -30 9 -12 1 -52 14 -91 28 -71 26 -133 29
-235 10 -19 -3 -48 -7 -65 -8 -16 0 -32 -4 -35 -7 -8 -11 -59 -15 -60 -5 -2
17 94 40 220 52 79 8 110 13 120 19 5 3 16 3 23 -2 6 -4 24 -8 38 -9 14 -1 36
-5 48 -9 16 -5 21 -4 17 4 -5 7 -1 9 8 5 9 -3 16 -2 16 4 0 13 -27 23 -45 16
-8 -4 -22 -1 -29 6 -14 11 -108 14 -168 6 -16 -2 -28 0 -28 5 0 18 76 28 225
29 88 0 171 1 185 2 14 1 61 -8 105 -20 44 -11 98 -24 121 -27 l40 -6 19 62
c42 138 116 238 209 280 50 23 84 26 67 6z m1299 3 c0 -5 -4 -10 -10 -10 -5 0
-10 5 -10 10 0 6 5 10 10 10 6 0 10 -4 10 -10z m-1952 -80 c6 -100 13 -106 99
-66 35 16 51 30 50 42 -1 9 4 19 12 22 8 3 11 0 7 -7 -4 -6 -2 -11 3 -11 26 0
8 -38 -28 -58 -56 -32 -85 -71 -30 -42 25 14 42 4 30 -17 -8 -14 -39 -17 -227
-20 -121 -1 -237 -5 -259 -7 -22 -3 -43 -5 -47 -5 -5 -1 -8 -8 -8 -17 0 -13
-7 -15 -42 -9 -24 4 -56 15 -73 24 -25 14 -31 25 -38 71 -4 31 -3 58 2 63 11
11 48 -23 53 -50 2 -11 13 -19 28 -20 14 -1 43 -5 65 -10 35 -7 163 -9 278 -5
20 1 37 7 37 13 0 6 -10 10 -22 9 -13 -1 -65 -2 -115 -1 l-93 1 0 68 c0 38 3
72 7 76 4 3 75 5 157 4 l151 -3 3 -45z m-523 30 c3 -5 -1 -10 -9 -10 -9 0 -16
5 -16 10 0 6 4 10 9 10 6 0 13 -4 16 -10z m958 -16 c33 -7 34 -11 1 -55 -14
-19 -32 -49 -39 -67 -14 -33 -15 -33 -62 -27 -79 11 -86 14 -78 38 4 12 11 46
17 75 l10 54 62 -7 c33 -3 73 -8 89 -11z m1382 6 c6 -9 -44 -40 -65 -40 -19 0
-5 24 21 37 29 15 36 16 44 3z m225 -75 c0 -41 1 -78 3 -82 3 -10 -152 -28
-160 -19 -4 4 1 20 11 37 14 23 16 41 11 79 -8 55 -6 56 88 59 l47 1 0 -75z
m-1255 49 c-37 -15 -105 -31 -105 -25 0 14 44 30 80 30 19 -1 31 -2 25 -5z
m1015 -54 c12 -8 12 -10 -3 -16 -22 -8 -50 3 -42 16 8 12 25 13 45 0z m-680
-30 c21 -17 29 -29 20 -29 -14 0 -70 42 -70 54 0 12 18 3 50 -25z m-920 1 c0
-12 -28 -22 -34 -12 -3 5 -3 11 1 15 9 9 33 7 33 -3z m536 -27 c-3 -8 -10 -12
-16 -9 -7 4 -6 14 2 28 12 24 24 8 14 -19z m242 -27 c6 -5 12 -27 12 -48 0
-28 8 -47 30 -72 16 -18 28 -42 28 -53 -1 -10 2 -29 6 -41 9 -29 -3 -29 -55
-2 -39 19 -240 137 -248 145 -3 3 12 21 32 42 20 21 37 42 37 47 0 4 7 16 16
26 15 16 19 16 72 -8 31 -14 63 -30 70 -36z m67 33 c0 -7 -6 -15 -12 -17 -8
-3 -13 4 -13 17 0 13 5 20 13 18 6 -3 12 -11 12 -18z m710 10 c-10 -16 -82
-50 -105 -50 -12 0 -28 -7 -37 -16 -11 -11 -19 -12 -26 -5 -17 17 -40 13 -33
-4 7 -19 -4 -19 -28 -2 -32 23 -16 51 34 60 25 5 61 12 80 17 52 12 122 12
115 0z m-258 -73 l2 -36 -65 -7 c-42 -4 -74 -3 -87 5 -12 6 -42 12 -67 13
l-45 3 40 12 c22 6 67 17 100 23 33 7 69 16 80 20 31 13 40 6 42 -33z m-259
21 c-6 -18 -28 -21 -28 -4 0 9 7 16 16 16 9 0 14 -5 12 -12z m-876 -7 c8 -1
-1 -30 -15 -49 -7 -9 -13 -10 -24 -1 -10 9 -17 9 -25 1 -15 -15 -55 -15 -99
-1 -46 16 -63 33 -24 25 17 -3 48 -8 70 -11 37 -5 38 -4 15 7 -34 16 -33 15
-25 27 5 9 58 10 127 2z m298 -30 c27 -21 111 -71 187 -111 76 -40 147 -81
159 -91 11 -11 28 -19 37 -19 9 0 18 -4 21 -9 3 -5 26 -14 50 -20 44 -11 44
-11 36 -42 -12 -41 -14 -43 -46 -35 l-28 7 29 23 29 23 -29 0 c-17 0 -49 4
-72 10 -24 6 -40 7 -37 2 3 -5 1 -9 -5 -9 -5 0 -13 5 -16 10 -4 6 -11 8 -16 5
-5 -3 -6 1 -2 11 5 14 3 15 -17 4 -20 -11 -22 -10 -17 3 4 10 -4 22 -20 32
-24 16 -25 16 -18 -6 7 -22 7 -22 -16 3 -13 14 -30 23 -36 21 -7 -3 -13 0 -13
5 0 5 -21 17 -46 27 -33 13 -42 20 -33 26 8 5 10 9 4 10 -5 1 -14 2 -20 4 -5
1 -20 3 -32 3 -28 3 -83 72 -90 117 -3 19 -3 35 1 35 4 0 29 -17 56 -39z
m1620 30 c0 -5 -10 -11 -22 -15 -17 -4 -20 -8 -10 -15 10 -6 8 -10 -9 -14 -13
-4 -28 -2 -33 3 -6 6 -19 10 -30 9 -18 -1 -17 -2 4 -9 17 -5 19 -8 8 -9 -10
-1 -19 0 -20 1 -2 1 -13 -4 -25 -11 -15 -7 -23 -8 -23 -1 0 5 8 10 18 11 13 0
12 3 -6 11 -19 10 -25 8 -37 -9 -13 -18 -29 -22 -133 -28 -101 -6 -124 -4
-151 9 -36 19 -34 36 4 29 19 -4 27 0 34 18 5 13 10 18 10 10 1 -10 17 -11 84
-5 45 5 109 7 142 6 33 -1 74 2 90 7 39 12 105 13 105 2z m-2823 -33 c-3 -8
-6 -5 -6 6 -1 11 2 17 5 13 3 -3 4 -12 1 -19z m1707 2 c45 -17 30 -35 -45 -53
-15 -4 -33 -1 -44 7 -17 12 -17 14 3 34 24 24 47 27 86 12z m586 -62 c61 -30
71 -32 178 -32 l112 0 2 -43 c0 -24 1 -49 2 -55 1 -7 -3 -12 -9 -11 -5 1 -28
4 -50 8 -27 4 -35 3 -25 -3 8 -5 35 -13 60 -17 25 -4 59 -13 75 -20 17 -7 62
-18 100 -25 77 -13 95 -27 87 -65 -4 -23 -8 -25 -41 -20 -93 14 -131 28 -131
50 0 19 -5 21 -32 17 -18 -2 -38 -9 -45 -14 -7 -6 -19 -5 -32 1 -11 6 -29 11
-41 11 -11 0 -23 7 -27 16 -3 8 -12 13 -20 10 -14 -6 -23 3 -70 62 -29 37 -98
76 -190 106 -88 29 -83 40 22 55 6 0 39 -13 75 -31z m-1170 12 c0 -5 -4 -10
-9 -10 -6 0 -13 5 -16 10 -3 6 1 10 9 10 9 0 16 -4 16 -10z m1013 -39 c29 -15
68 -31 88 -35 39 -7 89 -40 89 -58 0 -12 -5 -11 -118 31 -46 16 -95 31 -110
32 -15 2 -32 7 -39 12 -7 5 -18 5 -24 1 -7 -4 -9 -3 -5 4 4 6 -8 16 -28 23
-52 19 -32 32 36 25 37 -3 78 -17 111 -35z m-473 -31 c-13 -9 -13 -11 0 -20
11 -7 11 -10 2 -10 -16 0 -26 25 -18 47 5 13 9 14 19 4 9 -9 9 -14 -3 -21z
m104 24 c9 -3 13 -10 10 -15 -3 -6 -1 -15 4 -22 6 -7 13 -91 17 -187 4 -96 12
-186 17 -200 l10 -25 11 23 c8 17 7 79 -1 220 -6 108 -10 198 -7 200 13 13 27
-97 32 -250 l6 -178 27 0 c15 0 33 7 40 15 8 10 30 15 64 15 61 0 82 -11 71
-36 -4 -11 -9 -217 -11 -458 -2 -242 -7 -442 -9 -445 -9 -8 -469 -14 -529 -7
-31 4 -56 12 -56 18 0 6 11 8 25 6 22 -5 25 -3 19 16 -4 11 -11 24 -16 27 -11
7 1 81 12 74 5 -3 5 7 1 22 -9 32 -32 41 -118 42 -34 1 -64 5 -67 9 -2 4 31 7
75 6 96 -2 114 10 105 65 -17 116 -18 189 -2 212 10 15 16 44 16 80 0 50 -3
60 -26 78 -14 11 -23 24 -20 29 3 5 -9 7 -27 5 l-32 -3 34 13 c28 11 59 46 61
69 0 4 -9 10 -20 13 -23 7 -27 45 -5 45 8 0 15 9 15 19 0 11 8 21 18 23 18 5
-105 14 -315 24 -73 3 -133 10 -133 14 0 4 27 13 60 20 33 7 60 17 60 21 0 5
-23 9 -50 9 l-51 0 3 97 3 97 43 9 c33 6 45 14 53 34 13 36 -12 73 -49 73 -43
0 -65 20 -57 53 6 23 12 27 45 27 25 0 48 -8 67 -23 58 -48 396 -223 450 -233
21 -4 50 -16 66 -27 22 -17 27 -28 27 -64 l0 -43 -137 -1 -138 -1 60 -13 c33
-7 106 -15 163 -18 102 -4 104 -4 97 17 -4 11 -10 84 -15 161 -4 77 -11 166
-15 198 -8 59 -7 61 19 51z m429 -136 c12 -6 16 -15 11 -26 -8 -20 -36 -102
-40 -119 -6 -22 -83 -15 -161 14 l-73 28 0 75 c0 42 5 81 11 87 8 8 42 3 122
-19 62 -17 120 -35 130 -40z m-1823 27 c0 -8 -4 -15 -10 -15 -5 0 -10 -11 -10
-24 0 -27 33 -56 63 -56 12 0 17 -6 15 -17 -4 -19 -92 -55 -165 -68 l-43 -7 0
84 c0 93 4 104 40 111 59 11 110 7 110 -8z m310 -2 c0 -2 -7 -17 -15 -33 l-16
-30 -130 0 c-84 0 -128 4 -124 10 3 6 1 10 -4 10 -21 0 -10 15 22 32 25 12 58
16 150 15 64 0 117 -2 117 -4z m400 3 c0 -2 -7 -9 -15 -16 -13 -11 -14 -10 -9
4 5 14 24 23 24 12z m1270 -104 c16 -25 26 -50 24 -54 -12 -19 -32 -5 -49 32
-10 22 -24 45 -32 51 -7 6 -13 18 -13 26 0 25 39 -5 70 -55z m30 49 c12 -24
13 -41 2 -41 -8 0 -32 43 -32 55 0 13 21 3 30 -14z m-1338 -18 c-43 -4 -44 -5
-41 -41 5 -90 -1 -223 -11 -217 -6 4 -10 60 -10 134 l0 127 53 1 c47 0 48 0 9
-4z m-102 -39 c12 -30 13 -174 2 -191 -19 -30 -30 7 -32 102 -1 55 -1 103 -1
108 2 17 22 5 31 -19z m1319 -29 c21 -37 103 -95 132 -95 11 0 27 20 45 56 27
55 28 56 62 49 79 -15 82 -18 82 -90 0 -62 1 -65 28 -71 15 -3 41 -10 57 -14
17 -5 58 -14 93 -21 62 -12 62 -12 62 -46 0 -26 -4 -34 -14 -30 -8 3 -32 9
-53 12 -36 6 -60 11 -148 34 -22 5 -55 13 -74 16 -19 3 -41 10 -50 14 -9 5
-53 11 -97 14 -86 4 -108 14 -146 62 -17 22 -23 43 -24 80 -1 78 12 86 45 30z
m-1756 -5 c4 -15 -4 -27 -27 -45 -39 -30 -66 -35 -45 -8 12 15 12 16 -4 10
-27 -10 -158 -30 -163 -24 -3 2 23 11 58 18 34 8 80 26 102 41 50 32 72 35 79
8z m365 8 c7 -7 12 -40 12 -80 0 -79 -9 -88 -88 -88 -88 0 -83 27 -72 -471 5
-239 10 -435 10 -437 2 -33 542 -59 1014 -48 315 7 336 10 347 61 4 17 7 221
8 453 l1 424 88 -6 c56 -3 113 -14 159 -30 40 -15 77 -26 83 -26 6 0 42 -12
82 -27 l71 -28 -7 -1515 c-6 -1324 -9 -1517 -22 -1530 -13 -13 -154 -15 -1149
-15 -873 0 -1137 3 -1146 12 -9 9 -14 231 -20 915 -4 497 -10 1205 -13 1575
-6 669 -6 672 14 683 11 6 62 20 112 31 108 23 117 28 181 88 49 46 49 46 151
57 141 15 170 16 184 2z m1096 -24 c9 -3 16 -12 16 -20 0 -14 40 -20 107 -15
24 1 33 -3 38 -19 3 -11 11 -20 16 -20 11 0 39 -25 39 -35 0 -8 -93 6 -100 15
-9 13 -50 31 -59 26 -4 -3 -17 1 -27 8 -13 10 -23 11 -31 4 -16 -13 -43 13
-43 41 0 21 15 26 44 15z m-1784 -44 c0 -5 7 -10 16 -10 14 0 14 -2 3 -16 -12
-14 -14 -14 -26 2 -16 21 -17 34 -3 34 6 0 10 -4 10 -10z m-105 -50 c-40 -10
-77 -12 -71 -2 2 4 26 8 53 8 40 2 43 1 18 -6z m834 -179 c14 -26 -7 -53 -36
-45 -28 8 -32 50 -5 57 29 8 31 7 41 -12z m411 -332 c0 -18 -18 -9 -23 12 -4
16 -3 18 9 8 8 -6 14 -15 14 -20z m-405 -344 c0 -10 -6 -20 -12 -22 -8 -3 -13
5 -13 22 0 17 5 25 13 23 6 -3 12 -13 12 -23z m-41 -1 c9 -22 -3 -32 -14 -14
-12 19 -12 30 -1 30 5 0 12 -7 15 -16z"/>
<path d="M4640 6230 c0 -5 -6 -10 -14 -10 -35 0 -61 -81 -34 -108 19 -19 28
-14 28 17 0 16 7 34 16 42 14 11 15 7 13 -46 -3 -52 0 -59 19 -66 48 -18 92
21 92 79 0 39 -59 102 -95 102 -14 0 -25 -4 -25 -10z m74 -36 c38 -38 22 -114
-24 -114 -18 0 -20 7 -20 65 0 69 12 82 44 49z"/>
<path d="M6502 6220 c-29 -24 -48 -84 -35 -112 10 -22 12 -20 18 19 4 23 16
50 26 59 18 17 19 15 19 -50 0 -62 2 -67 26 -76 35 -14 38 -13 68 16 37 37 34
79 -7 127 -27 30 -40 37 -64 35 -17 -1 -40 -9 -51 -18z m109 -50 c15 -49 1
-90 -31 -90 -18 0 -20 6 -20 65 0 58 2 65 20 65 14 0 22 -11 31 -40z"/>
<path d="M6184 5761 c3 -5 15 -7 26 -4 28 7 25 13 -6 13 -14 0 -23 -4 -20 -9z"/>
<path d="M6085 5750 c-18 -8 -18 -9 5 -9 14 0 32 4 40 9 12 8 12 10 -5 9 -11
0 -29 -4 -40 -9z"/>
<path d="M6925 5890 c-8 -12 42 -12 70 0 16 7 11 9 -22 9 -23 1 -45 -3 -48 -9z"/>
<path d="M6147 4900 c-9 -11 -13 -20 -7 -20 5 0 14 9 20 20 6 11 9 20 8 20 -2
0 -11 -9 -21 -20z"/>
<path d="M6480 5142 c0 -12 19 -26 26 -19 2 2 -2 10 -11 17 -9 8 -15 8 -15 2z"/>
<path d="M6740 5090 c8 -5 24 -9 35 -9 l20 0 -20 9 c-11 5 -27 9 -35 9 -13 1
-13 0 0 -9z"/>
<path d="M6387 3868 c-28 -15 -21 -48 13 -59 43 -16 38 -33 -7 -24 -33 6 -35
5 -24 -9 8 -9 26 -16 41 -16 53 0 64 52 14 64 -13 4 -24 11 -24 17 0 7 10 9
26 5 18 -5 25 -3 22 5 -6 18 -42 28 -61 17z"/>
<path d="M4816 3838 c-32 -78 -31 -88 4 -66 16 10 24 10 40 0 12 -7 25 -10 29
-7 11 6 -35 105 -50 105 -5 0 -16 -15 -23 -32z m34 -23 c0 -8 -4 -15 -10 -15
-5 0 -10 7 -10 15 0 8 5 15 10 15 6 0 10 -7 10 -15z"/>
<path d="M4907 3863 c-2 -5 -3 -21 -1 -38 1 -16 3 -38 3 -47 1 -28 21 -21 21
7 0 14 4 25 8 25 5 0 15 -11 22 -25 27 -50 48 -26 42 47 -5 45 -22 51 -22 8 0
-38 -10 -38 -32 0 -17 29 -33 38 -41 23z"/>
<path d="M5016 3861 c-3 -5 3 -11 14 -14 16 -4 20 -14 20 -47 0 -56 24 -49 28
8 2 29 8 42 18 42 8 0 14 5 14 10 0 12 -87 13 -94 1z"/>
<path d="M5132 3858 c-21 -21 -15 -76 12 -93 57 -37 118 43 68 88 -22 20 -63
22 -80 5z m67 -25 c12 -23 -4 -53 -29 -53 -23 0 -36 36 -20 55 17 20 37 19 49
-2z"/>
<path d="M5250 3815 c0 -59 17 -76 22 -22 l3 32 20 -32 c30 -50 45 -42 45 22
0 30 -4 55 -10 55 -5 0 -10 -15 -10 -32 l-1 -33 -27 33 c-15 18 -30 32 -34 32
-5 0 -8 -25 -8 -55z"/>
<path d="M5370 3815 c0 -30 5 -55 10 -55 6 0 10 25 10 55 0 30 -4 55 -10 55
-5 0 -10 -25 -10 -55z"/>
<path d="M5426 3854 c-34 -34 -6 -104 41 -104 21 0 53 38 53 63 0 48 -61 74
-94 41z m59 -39 c0 -23 -5 -31 -21 -33 -26 -4 -38 22 -23 49 16 30 44 20 44
-16z"/>
<path d="M5584 3857 c-3 -8 -4 -32 -2 -53 3 -36 6 -39 36 -42 39 -4 66 14 56
37 -3 9 -7 27 -8 41 -1 21 -6 25 -39 28 -25 2 -39 -1 -43 -11z m56 -22 c0 -8
-7 -15 -15 -15 -8 0 -15 7 -15 15 0 8 7 15 15 15 8 0 15 -7 15 -15z m8 -43 c2
-7 -6 -12 -17 -12 -21 0 -27 11 -14 24 9 9 26 2 31 -12z"/>
<path d="M5705 3820 c-19 -58 -16 -67 14 -48 17 11 25 11 42 0 12 -7 23 -12
25 -10 2 2 -5 26 -15 54 -26 67 -45 68 -66 4z m45 -10 c0 -5 -4 -10 -10 -10
-5 0 -10 5 -10 10 0 6 5 10 10 10 6 0 10 -4 10 -10z"/>
<path d="M5804 3856 c-3 -8 -4 -31 -2 -52 5 -45 28 -59 28 -17 l1 28 22 -27
c35 -43 47 -36 47 27 0 30 -4 55 -10 55 -5 0 -10 -13 -10 -30 0 -38 -10 -38
-32 0 -18 32 -35 38 -44 16z"/>
<path d="M5924 3856 c-3 -8 -4 -31 -2 -52 3 -36 6 -39 36 -42 40 -4 62 12 62
45 0 43 -18 63 -56 63 -20 0 -37 -6 -40 -14z m66 -21 c16 -19 9 -49 -14 -53
-23 -5 -34 12 -28 44 5 27 23 31 42 9z"/>
<path d="M6040 3815 l0 -55 46 0 c27 0 43 4 39 10 -3 6 -17 10 -31 10 -35 0
-32 30 4 31 27 1 27 1 3 8 -34 9 -39 31 -7 31 14 0 26 5 26 10 0 6 -18 10 -40
10 l-40 0 0 -55z"/>
<path d="M6145 3858 c-8 -25 0 -91 13 -96 7 -2 12 5 12 17 0 28 36 28 45 1 3
-11 10 -20 15 -20 12 0 9 94 -4 102 -18 12 -76 9 -81 -4z m65 -23 c0 -8 -9
-15 -20 -15 -11 0 -20 7 -20 15 0 8 9 15 20 15 11 0 20 -7 20 -15z"/>
<path d="M6283 3853 c-3 -10 -12 -33 -20 -52 -14 -37 -10 -52 9 -33 16 16 55
15 61 0 2 -7 8 -10 12 -6 4 4 -1 29 -10 57 -17 52 -40 67 -52 34z m23 -50
c-10 -10 -19 5 -10 18 6 11 8 11 12 0 2 -7 1 -15 -2 -18z"/>
<path d="M5008 3593 c20 -4 22 -10 22 -59 0 -30 5 -54 10 -54 6 0 10 24 10 54
0 49 2 55 23 59 12 2 -3 4 -33 4 -30 0 -45 -2 -32 -4z"/>
<path d="M5120 3540 c0 -33 4 -60 10 -60 6 0 10 11 10 24 0 17 7 25 23 28 34
7 47 -1 47 -28 0 -13 5 -24 10 -24 6 0 10 27 10 60 0 58 -15 84 -22 38 -2 -18
-10 -23 -33 -23 -23 0 -31 5 -33 23 -7 46 -22 20 -22 -38z"/>
<path d="M5270 3540 l0 -60 48 2 c43 1 44 2 10 5 -30 3 -38 9 -38 24 0 14 7
19 24 19 14 0 28 5 31 10 4 6 -7 10 -25 10 -45 0 -37 33 10 41 33 6 32 6 -12
8 l-48 1 0 -60z"/>
<path d="M5482 3592 c-7 -5 -15 -24 -18 -43 -8 -47 14 -73 59 -72 46 1 57 9
57 39 0 20 -5 24 -27 23 -18 -1 -22 -3 -10 -6 21 -5 18 -22 -6 -37 -26 -17
-52 5 -52 44 0 42 26 61 56 42 22 -14 35 -10 24 7 -7 13 -64 14 -83 3z"/>
<path d="M5627 3582 c-49 -54 31 -139 87 -93 23 19 29 61 11 87 -19 30 -74 33
-98 6z m79 -9 c18 -24 17 -48 -2 -67 -23 -24 -53 -20 -66 9 -24 53 34 103 68
58z"/>
<path d="M5780 3565 c-9 -75 -4 -85 43 -84 l42 2 -35 6 c-34 6 -35 7 -40 61
-5 54 -6 54 -10 15z"/>
<path d="M5890 3540 l0 -61 42 3 c34 2 45 8 58 31 13 24 13 30 0 55 -13 22
-24 28 -58 30 l-42 3 0 -61z m83 29 c22 -35 -20 -94 -53 -74 -11 7 -14 78 -3
89 12 11 45 2 56 -15z"/>
<path d="M6039 3588 c0 -7 -2 -26 -4 -43 -5 -55 2 -65 48 -64 l42 2 -35 6
c-34 6 -57 40 -28 42 7 1 18 2 23 4 6 1 17 3 25 5 8 1 -1 5 -20 9 -22 4 -35
12 -35 21 0 9 13 17 35 21 l35 6 -42 2 c-28 1 -43 -3 -44 -11z"/>
<path d="M6160 3540 c0 -68 17 -82 22 -17 l3 42 29 -42 c16 -24 32 -43 36 -43
11 0 18 71 9 100 -6 22 -7 21 -8 -12 -1 -51 -12 -53 -41 -7 -35 57 -50 51 -50
-21z"/>
<path d="M5272 3388 c-18 -18 -15 -48 6 -54 55 -18 64 -24 52 -39 -17 -20 -47
-19 -59 2 -5 10 -13 14 -17 10 -13 -13 22 -39 52 -39 34 0 59 29 42 49 -6 8
-27 21 -45 28 -19 8 -32 19 -28 25 8 14 38 13 53 -2 6 -6 15 -8 19 -4 10 9
-25 36 -47 36 -9 0 -21 -5 -28 -12z"/>
<path d="M5427 3392 l-38 -3 3 -57 3 -57 45 -2 c41 -1 42 -1 10 5 -46 9 -50
44 -5 53 l30 6 -30 4 c-43 6 -39 33 5 39 45 7 27 16 -23 12z"/>
<path d="M5543 3388 c-43 -21 -39 -94 7 -118 30 -16 88 19 73 43 -3 5 -12 -1
-20 -12 -18 -26 -35 -27 -58 -1 -15 16 -17 26 -9 48 10 28 35 34 79 18 17 -7
17 -5 -4 13 -26 23 -36 25 -68 9z"/>
<path d="M5813 3389 c-4 -4 -6 -33 -5 -63 l4 -56 41 2 c37 1 38 2 10 5 -27 4
-33 9 -33 29 0 20 5 24 33 25 l32 2 -35 6 c-22 4 -35 12 -35 21 0 9 13 17 35
21 19 4 26 7 15 8 -11 2 -27 4 -37 6 -9 2 -20 -1 -25 -6z"/>
<path d="M5924 3388 c-3 -4 4 -8 15 -8 19 0 21 -6 21 -55 0 -30 5 -55 10 -55
6 0 10 23 10 50 0 43 3 52 23 60 26 10 24 11 -31 14 -24 1 -45 -2 -48 -6z"/>
<path d="M5670 3330 c0 -34 4 -59 9 -56 5 3 7 15 4 26 -4 17 0 20 25 20 24 0
32 -6 40 -27 9 -24 10 -18 9 32 l-2 60 -42 3 -43 3 0 -61z m73 36 c7 -18 -1
-26 -29 -26 -25 0 -39 14 -29 30 9 15 52 12 58 -4z"/>
<path d="M5290 2390 c0 -5 5 -10 10 -10 6 0 10 5 10 10 0 6 -4 10 -10 10 -5 0
-10 -4 -10 -10z"/>
<path d="M5581 2274 c0 -11 3 -14 6 -6 3 7 2 16 -1 19 -3 4 -6 -2 -5 -13z"/>
<path d="M5235 2270 c3 -5 8 -10 11 -10 2 0 4 5 4 10 0 6 -5 10 -11 10 -5 0
-7 -4 -4 -10z"/>
<path d="M5930 2266 c0 -8 4 -17 9 -20 5 -4 7 3 4 14 -6 23 -13 26 -13 6z"/>
<path d="M5280 2240 c0 -5 5 -10 11 -10 5 0 7 5 4 10 -3 6 -8 10 -11 10 -2 0
-4 -4 -4 -10z"/>
<path d="M4664 2210 c-21 -8 -40 -28 -33 -35 2 -1 20 8 39 21 35 24 33 30 -6
14z"/>
<path d="M6485 2195 c-14 -13 -25 -30 -25 -37 0 -7 10 -1 21 15 11 15 28 27
37 27 10 0 24 5 32 10 12 8 9 10 -13 10 -16 0 -38 -10 -52 -25z"/>
<path d="M4680 2132 c0 -65 11 -82 50 -76 43 7 79 71 50 89 -6 3 -10 -5 -10
-19 0 -14 -9 -31 -22 -40 -39 -28 -48 -21 -48 38 0 30 -4 58 -10 61 -6 4 -10
-16 -10 -53z"/>
<path d="M6520 2126 c0 -55 3 -66 17 -66 12 0 14 3 6 11 -5 5 -8 32 -6 59 2
27 -1 51 -7 55 -6 4 -10 -17 -10 -59z"/>
<path d="M6607 2132 c-4 -17 -16 -40 -27 -49 -26 -22 -26 -37 0 -23 33 17 52
54 42 80 -8 23 -9 22 -15 -8z"/>
<path d="M5840 2129 c0 -5 5 -7 10 -4 6 3 10 8 10 11 0 2 -4 4 -10 4 -5 0 -10
-5 -10 -11z"/>
<path d="M6125 2130 c3 -5 8 -10 11 -10 2 0 4 5 4 10 0 6 -5 10 -11 10 -5 0
-7 -4 -4 -10z"/>
<path d="M5074 2104 c-4 -17 -1 -31 10 -42 15 -15 16 -13 16 26 0 47 -16 56
-26 16z"/>
<path d="M5187 2116 c-6 -15 1 -26 15 -26 11 0 10 27 -1 34 -5 3 -11 0 -14 -8z"/>
<path d="M5647 2088 c8 -59 13 -61 13 -5 0 26 -4 47 -9 47 -5 0 -7 -19 -4 -42z"/>
<path d="M5280 2089 c0 -5 5 -7 10 -4 6 3 10 8 10 11 0 2 -4 4 -10 4 -5 0 -10
-5 -10 -11z"/>
<path d="M5450 2085 c0 -8 2 -15 4 -15 2 0 6 7 10 15 3 8 1 15 -4 15 -6 0 -10
-7 -10 -15z"/>
<path d="M5495 2090 c3 -5 8 -10 11 -10 2 0 4 5 4 10 0 6 -5 10 -11 10 -5 0
-7 -4 -4 -10z"/>
<path d="M5840 2084 c0 -8 5 -12 10 -9 6 4 8 11 5 16 -9 14 -15 11 -15 -7z"/>
<path d="M5330 2070 c0 -5 5 -10 10 -10 6 0 10 5 10 10 0 6 -4 10 -10 10 -5 0
-10 -4 -10 -10z"/>
<path d="M6080 2040 c0 -5 5 -10 11 -10 5 0 7 5 4 10 -3 6 -8 10 -11 10 -2 0
-4 -4 -4 -10z"/>
<path d="M5090 4930 c0 -5 5 -10 11 -10 5 0 7 5 4 10 -3 6 -8 10 -11 10 -2 0
-4 -4 -4 -10z"/>
<path d="M2990 6439 c-315 -19 -524 -30 -830 -44 -633 -30 -621 -29 -636 -49
-20 -28 -23 -86 -28 -579 -4 -300 -2 -465 4 -478 12 -21 156 -109 273 -164 42
-21 77 -41 77 -45 0 -4 -116 -15 -257 -24 -315 -21 -316 -21 -350 -51 l-28
-23 2 -819 c1 -450 7 -1162 14 -1583 12 -866 4 -792 97 -867 26 -21 49 -40 52
-43 6 -6 238 -171 257 -183 25 -16 857 42 1503 103 58 6 209 19 335 30 345 29
365 33 384 68 18 34 20 175 27 1723 5 1111 3 1522 -5 1537 -14 26 -109 100
-181 140 -30 17 -83 36 -117 43 -69 13 -79 25 -34 40 59 21 59 20 46 589 -7
283 -13 516 -14 518 -3 7 -120 56 -211 89 -52 19 -123 45 -157 59 -34 13 -67
23 -75 23 -7 -1 -74 -6 -148 -10z m-784 -1381 c-3 -13 -6 -28 -6 -35 0 -6 -9
-9 -20 -6 -14 4 -20 14 -20 34 0 25 4 29 26 29 22 0 25 -3 20 -22z m216 -208
c44 0 67 -4 63 -10 -4 -6 -84 -9 -215 -7 -114 1 -206 4 -203 7 7 8 192 18 242
14 24 -2 75 -4 113 -4z m-760 -11 c4 -13 72 -28 109 -24 16 2 29 0 29 -4 0 -5
24 -12 53 -15 28 -4 72 -14 97 -22 25 -9 82 -21 128 -27 45 -6 82 -14 82 -18
0 -11 -83 -16 -217 -15 -66 1 -116 -2 -110 -6 9 -6 9 -8 1 -8 -28 0 -74 13
-74 22 0 12 -47 58 -60 58 -19 0 -10 -14 38 -57 32 -29 42 -43 30 -43 -22 0
-193 127 -193 143 0 20 81 35 87 16z m-92 -61 c0 -7 -5 -20 -10 -28 -8 -12
-10 -9 -10 13 0 15 5 27 10 27 6 0 10 -6 10 -12z m1338 -265 c-10 -2 -26 -2
-35 0 -10 3 -2 5 17 5 19 0 27 -2 18 -5z m649 -1275 c1 -735 -2 -1280 -7
-1294 -5 -13 -20 -26 -32 -29 -22 -5 -324 -32 -1013 -90 -159 -14 -332 -29
-383 -35 -51 -5 -100 -6 -108 -3 -12 4 -14 148 -12 1027 1 888 3 994 12 811
11 -189 15 -209 29 -140 4 18 5 18 6 -2 1 -19 7 -23 36 -23 19 0 35 -4 35 -10
0 -5 9 -10 20 -10 11 0 20 5 20 10 0 6 9 10 20 10 11 0 20 -4 20 -10 0 -6 36
-10 89 -10 56 0 91 -4 93 -11 4 -13 149 -14 157 -1 12 17 51 20 67 5 13 -13
19 -14 39 -3 12 7 28 22 34 34 l11 21 -5 -22 c-3 -12 -1 -24 5 -28 5 -3 10 1
10 9 0 15 23 22 108 30 41 4 42 3 42 -24 0 -37 16 -47 24 -15 7 29 22 31 62
10 22 -11 30 -12 36 -2 6 9 10 8 18 -3 8 -13 10 -12 10 3 0 14 10 17 60 17 48
0 60 -3 60 -16 0 -8 5 -12 10 -9 6 4 22 0 35 -9 13 -9 36 -16 50 -16 14 0 25
-6 26 -12 0 -7 5 -2 10 11 9 23 10 23 27 4 9 -11 24 -18 32 -16 34 10 60 27
60 41 0 10 7 13 23 8 12 -3 46 -6 75 -6 l52 0 1 -42 2 -43 7 50 c5 28 9 290 9
584 1 294 4 531 8 527 5 -4 9 -579 10 -1278z m-884 1265 c-7 -2 -19 -2 -25 0
-7 3 -2 5 12 5 14 0 19 -2 13 -5z m-96 -9 c-3 -3 -32 -8 -64 -10 -40 -2 -53
-1 -43 6 16 10 117 14 107 4z m-279 -21 c-10 -2 -28 -2 -40 0 -13 2 -5 4 17 4
22 1 32 -1 23 -4z m-280 -28 c-27 -14 -33 -12 -25 9 4 9 14 12 27 9 21 -6 21
-6 -2 -18z m135 18 c-7 -2 -19 -2 -25 0 -7 3 -2 5 12 5 14 0 19 -2 13 -5z
m1265 -56 c20 -21 20 -25 8 -61 -8 -22 -22 -45 -32 -53 -21 -15 -54 -17 -54
-3 0 6 9 10 19 10 11 0 23 5 27 11 5 8 -1 10 -18 6 -18 -5 -33 0 -52 16 -34
29 -33 40 7 71 40 32 67 33 95 3z m-1180 -73 c12 -8 22 -22 22 -31 0 -13 -6
-11 -27 9 -16 14 -35 28 -43 31 -11 4 -9 6 5 6 11 1 31 -6 43 -15z m-116 -56
c-8 -8 -9 -4 -5 13 4 13 8 18 11 10 2 -7 -1 -18 -6 -23z m79 -9 l7 -24 7 23
c8 24 25 30 25 9 0 -20 -22 -37 -47 -37 -13 0 -23 -4 -23 -10 0 -12 -2 -12 38
-1 39 12 34 -5 -6 -20 -22 -9 -30 -7 -44 11 -22 27 -24 54 -3 46 10 -4 15 1
15 15 0 28 23 19 31 -12z m657 -399 c12 -10 24 -33 27 -52 l5 -33 -16 37 c-10
22 -29 43 -48 52 -23 12 -26 16 -11 15 11 0 30 -8 43 -19z m9 -160 c-3 -10 1
-56 9 -100 20 -113 4 -126 -18 -15 -13 69 -14 95 -6 113 14 27 22 29 15 2z
m-151 -27 c-2 -10 -8 -57 -12 -105 -3 -49 -11 -88 -16 -88 -7 0 -8 15 -4 38 4
20 9 67 13 105 3 37 10 67 15 67 5 0 7 -8 4 -17z m624 -253 c0 -5 -4 -10 -10
-10 -5 0 -10 5 -10 10 0 6 5 10 10 10 6 0 10 -4 10 -10z"/>
<path d="M1665 4800 c3 -5 12 -7 20 -3 21 7 19 13 -6 13 -11 0 -18 -4 -14 -10z"/>
<path d="M2776 3451 c-34 -7 -48 -31 -17 -28 12 1 21 5 21 9 0 4 11 8 24 8 14
0 28 5 31 10 7 11 -13 11 -59 1z"/>
<path d="M3090 3435 c0 -8 5 -15 10 -15 6 0 10 7 10 15 0 8 -4 15 -10 15 -5 0
-10 -7 -10 -15z"/>
<path d="M3125 3400 c-3 -5 -2 -10 4 -10 5 0 13 5 16 10 3 6 2 10 -4 10 -5 0
-13 -4 -16 -10z"/>
<path d="M3165 3400 c3 -5 18 -10 32 -10 32 0 28 5 -10 14 -19 4 -26 3 -22 -4z"/>
<path d="M3286 3377 c-20 -15 -35 -97 -18 -97 6 0 14 5 17 10 5 8 11 8 20 0
16 -13 30 4 19 22 -4 7 -10 27 -13 46 -6 30 -8 32 -25 19z"/>
<path d="M2995 3350 c5 -33 5 -34 -6 -10 l-12 25 -6 -35 -6 -34 -18 27 c-21
33 -33 29 -31 -10 1 -15 3 -36 3 -46 1 -10 6 -15 12 -12 6 4 8 13 5 21 -3 7
-1 16 4 19 5 3 11 -3 15 -14 3 -11 12 -22 20 -25 11 -4 15 2 15 24 0 17 5 30
10 30 6 0 9 -3 9 -7 -1 -5 -1 -16 0 -25 1 -25 46 -23 64 2 l14 21 6 -22 c4
-15 11 -20 22 -15 9 3 26 6 36 6 11 0 17 5 14 10 -3 6 -15 10 -26 10 -10 0
-19 5 -19 10 0 6 7 10 15 10 18 0 20 16 3 23 -10 4 -10 6 0 6 17 1 15 21 -3
21 -8 0 -15 6 -15 13 0 8 -4 7 -10 -3 -8 -12 -11 -13 -19 -1 -6 9 -11 10 -15
2 -4 -6 -2 -11 3 -11 6 0 11 -12 11 -27 -1 -26 -1 -27 -12 -8 -20 35 -33 43
-51 34 -11 -7 -19 -4 -26 8 -8 14 -10 10 -6 -17z m65 -39 c0 -3 -5 -13 -10
-21 -12 -19 -33 0 -25 23 6 14 35 13 35 -2z"/>
<path d="M3347 3373 c-13 -12 -7 -43 7 -43 8 0 18 -5 21 -11 4 -6 0 -9 -8 -7
-9 2 -17 -1 -19 -7 -2 -5 9 -11 25 -13 31 -4 46 20 28 42 -9 11 -9 15 0 18 7
2 9 10 5 16 -8 13 -48 16 -59 5z"/>
<path d="M3181 3356 c-15 -18 -10 -68 7 -74 6 -2 12 3 12 12 0 9 5 16 10 16 6
0 10 -7 10 -15 0 -8 4 -15 9 -15 11 0 24 67 16 80 -9 15 -51 12 -64 -4z"/>
<path d="M2876 3348 c3 -4 -2 -8 -10 -8 -9 0 -16 -4 -16 -9 0 -5 -5 -22 -12
-38 l-11 -28 -6 35 c-5 31 -9 35 -36 35 -29 0 -30 -2 -30 -45 0 -44 1 -45 30
-42 17 1 51 3 77 4 l46 1 -14 40 c-9 27 -11 44 -4 52 7 8 5 12 -5 12 -8 0 -12
-4 -9 -9z"/>
<path d="M2595 3312 c-5 -11 -9 -13 -12 -4 -8 21 -32 14 -26 -8 3 -11 1 -20
-3 -20 -5 0 -15 9 -22 20 -18 29 -36 25 -28 -5 8 -31 -6 -33 -19 -2 -11 23
-38 25 -62 5 -21 -17 -16 -66 7 -78 23 -12 60 2 60 23 0 7 7 4 14 -6 14 -19
33 -7 21 13 -3 6 -2 10 3 10 6 0 12 -7 16 -15 3 -8 14 -15 24 -15 15 0 18 6
14 31 -3 22 -1 30 7 25 6 -4 11 -18 11 -32 0 -13 4 -24 10 -24 11 0 11 88 0
95 -4 3 -11 -3 -15 -13z m-128 -56 c-9 -23 -37 -20 -37 3 0 21 20 33 34 20 5
-4 6 -15 3 -23z"/>
<path d="M2646 3315 c-19 -19 -20 -38 -6 -66 14 -24 42 -24 64 0 39 43 -18
106 -58 66z m47 -21 c3 -4 2 -15 -4 -25 -10 -20 -39 -15 -39 6 0 18 31 31 43
19z"/>
<path d="M2350 3300 c-37 -4 -45 -9 -51 -30 l-6 -25 -11 28 c-18 42 -32 32
-32 -23 0 -27 5 -50 10 -50 6 0 10 7 10 15 0 19 7 19 27 0 21 -21 35 -9 31 28
-2 23 1 32 12 32 10 0 16 -12 18 -33 2 -20 8 -32 15 -29 7 2 11 16 9 31 -2 18
3 32 14 40 23 17 8 23 -46 16z"/>
<path d="M2181 3268 c-24 -64 -24 -65 15 -64 34 1 35 2 30 30 -3 16 -6 35 -6
42 0 23 -30 16 -39 -8z"/>
<path d="M3061 3112 c-6 -2 -11 -24 -11 -48 0 -45 0 -45 33 -42 17 2 31 8 29
13 -2 6 -10 9 -18 7 -8 -2 -14 2 -14 8 0 5 7 10 15 10 21 0 19 20 -2 21 -14 0
-13 2 5 9 45 18 12 38 -37 22z"/>
<path d="M3140 3075 c0 -25 5 -45 10 -45 6 0 10 9 10 21 0 21 0 21 19 -2 25
-31 44 -15 39 31 -4 39 -28 54 -29 18 l0 -23 -16 23 c-23 33 -33 27 -33 -23z"/>
<path d="M2964 3096 c-11 -28 1 -81 18 -84 26 -5 60 35 52 61 -11 37 -59 52
-70 23z m46 -37 c0 -10 -7 -19 -15 -19 -15 0 -21 31 -9 43 11 10 24 -3 24 -24z"/>
<path d="M2789 3081 c-20 -16 -22 -23 -14 -47 11 -32 46 -44 71 -24 21 18 18
67 -5 80 -25 13 -25 13 -52 -9z m49 -33 c-3 -24 -17 -32 -36 -20 -18 12 -4 42
20 42 14 0 19 -6 16 -22z"/>
<path d="M2879 3096 c-3 -3 -3 -23 -1 -45 4 -38 7 -41 33 -41 18 0 29 5 29 14
0 9 -7 12 -20 9 -17 -5 -20 0 -20 31 0 32 -8 44 -21 32z"/>
<path d="M2686 3074 c-36 -36 -7 -90 42 -77 26 6 32 53 7 53 -9 0 -15 -7 -13
-16 4 -22 -18 -29 -26 -9 -8 22 1 35 24 35 25 0 34 16 14 24 -24 9 -31 8 -48
-10z"/>
<path d="M2550 3031 c0 -48 1 -50 28 -46 15 2 31 4 35 4 5 1 5 6 2 11 -4 6
-15 8 -26 5 -11 -4 -19 -2 -19 4 0 6 7 11 15 11 8 0 15 5 15 10 0 6 -7 10 -17
10 -9 0 -13 3 -9 8 4 4 13 7 19 7 5 0 12 6 15 13 2 8 -7 12 -27 12 -30 0 -31
-1 -31 -49z"/>
<path d="M2383 3063 c-27 -5 -28 -9 -8 -29 8 -9 15 -27 15 -40 0 -14 4 -22 10
-19 6 3 10 19 10 35 0 16 7 30 16 34 8 3 12 10 9 16 -6 10 -13 11 -52 3z"/>
<path d="M2457 3064 c-10 -10 -9 -84 2 -84 5 0 12 10 15 23 l7 22 16 -22 c23
-34 34 -28 29 15 -3 20 -5 42 -6 47 0 6 -9 -1 -20 -15 l-19 -25 -8 23 c-5 13
-12 20 -16 16z"/>
<path d="M2953 2963 l-53 -4 0 -45 c0 -44 0 -44 35 -44 41 0 47 17 8 23 -27 4
-27 4 -5 12 27 9 30 29 2 20 -11 -4 -20 -2 -20 4 0 10 11 13 57 15 12 1 19 -9
23 -28 6 -35 24 -37 28 -4 2 13 8 27 13 33 15 16 10 25 -13 23 -13 -1 -47 -3
-75 -5z"/>
<path d="M2828 2952 c-14 -3 -18 -14 -18 -48 0 -24 5 -44 10 -44 6 0 10 7 10
15 0 20 20 19 36 -2 12 -16 13 -12 14 28 0 49 -12 60 -52 51z m27 -32 c-3 -5
-10 -10 -16 -10 -5 0 -9 5 -9 10 0 6 7 10 16 10 8 0 12 -4 9 -10z"/>
<path d="M2720 2931 c-5 -11 -10 -26 -10 -35 0 -18 27 -46 43 -46 21 0 40 17
32 29 -5 9 -10 9 -21 0 -12 -9 -18 -9 -27 0 -17 17 5 47 32 43 24 -4 29 13 5
22 -27 10 -43 7 -54 -13z"/>
<path d="M2545 2920 c-15 -16 -14 -19 11 -37 18 -13 23 -22 16 -27 -7 -4 -12
-2 -12 3 0 6 -4 11 -10 11 -5 0 -10 -7 -10 -15 0 -21 56 -20 64 1 8 21 -1 34
-25 34 -10 0 -19 5 -19 10 0 6 9 10 20 10 26 0 26 16 1 23 -12 3 -27 -3 -36
-13z"/>
<path d="M2627 2920 c-6 -23 4 -70 16 -70 44 -1 57 1 52 10 -3 6 -18 10 -33
10 l-27 1 30 14 c27 12 28 13 8 14 -28 1 -31 21 -3 21 11 0 20 5 20 10 0 6
-13 10 -29 10 -20 0 -30 -6 -34 -20z"/>
<path d="M3360 4414 c-21 -6 -41 -40 -34 -59 9 -22 24 -18 24 6 0 27 24 20 28
-9 3 -21 3 -21 23 -1 10 10 19 23 19 27 0 9 -34 43 -41 41 -2 -1 -11 -3 -19
-5z"/>
</g>
</svg>
